:SAMPLES-PER-SECOND 30
:FULLY-SPECIFIED
:DEGREES
10
root  9.604089091 39.36511062 -8.000888975 -5.44919014 -45.13190079 7.684380054
lfemur  -21.12659264 2.559220314 -17.47880363
ltibia  -1.491570742e-006 -8.364404493e-007 51.24948502
lfoot  5.521815751e-007 -17.90328979 0.8677812219
ltoes  -4.250644065 -19.5611806 -102.515957
rfemur  -16.0099926 15.92199993 8.789418221
rtibia  -8.727266732e-007 2.533748784e-007 51.92338562
rfoot  -2.316020982e-006 -27.97409058 -10.93859673
rtoes  5.373923086 19.29304026 -105.8922705
lowerback  10.79290009 0.8644220233 -2.187870026
upperback  2.112940073 0.8710079789 0.1173240021
thorax  -3.880310059 0.4420390129 1.234050035
rclavicle  0 -9.442270133e-015 7.951389973e-016
rhumerus  -24.2928009 27.88739967 -82.41230011
rradius  -7.782816926e-012 0.001642658608 100.2440033
rwrist  0.002739921212 0.003270594636 -2.372976065
rthumb  -92.93752616 -24.25625642 -97.11982154
rhand  -7.920061211e-032 -33.2840004 9.303460121
rfingers  -90 -7.125020027 -90
lclavicle  0 -9.442270133e-015 7.951389973e-016
lhumerus  -25.88489914 4.600910187 83.53659821
lradius  1.032090038e-011 -0.003757435596 124.401001
lwrist  1.816137865e-011 1.409039812e-011 4.006000042
lthumb  89.89689403 5.08795885 91.16245106
lhand  -1.496451383e-031 -27.76390076 20.11240005
lfingers  90 7.125020027 -90
lowerneck  -9.984809875 3.986660004 -3.832070112
upperneck  8.212820053 5.664249897 2.250540018
head  4.341619968 2.784120083 1.834560037
11
root  9.698466804 39.49599979 -7.961377572 -5.36055994 -45.75 7.645559788
lfemur  -21.64889908 3.532210112 -17.40049934
ltibia  -1.491570742e-006 -8.364404493e-007 51.8368988
lfoot  5.521815751e-007 -16.35560036 0.2453981787
ltoes  -4.250644065 -19.5611806 -102.515957
rfemur  -16.48460007 15.83740044 8.406570435
rtibia  -8.727266732e-007 2.533748784e-007 51.81959915
rfoot  -2.316020982e-006 -26.66689873 -9.766209602
rtoes  5.373923086 19.29304026 -105.8922705
lowerback  11.00879955 0.98467803 -1.916039944
upperback  2.08333993 1.061419964 0.2456140071
thorax  -4.035429955 0.5350139737 1.184559941
rclavicle  0 -9.442270133e-015 7.951389973e-016
rhumerus  -23.88269997 27.78429985 -82.17379761
rradius  -7.782816926e-012 0.001642658608 101.3929977
rwrist  0.002739921212 0.003270594636 -2.304293156
rthumb  -92.93752616 -24.25625642 -97.11982154
rhand  -7.920061211e-032 -33.2840004 9.303460121
rfingers  -90 -7.125020027 -90
lclavicle  0 -9.442270133e-015 7.951389973e-016
lhumerus  -26.10000038 4.630129814 83.90029907
lradius  1.032090038e-011 -0.003757435596 124.8219986
lwrist  1.816137865e-011 1.409039812e-011 3.602220058
lthumb  89.89689403 5.08795885 91.16245106
lhand  -1.496451383e-031 -27.76390076 20.11240005
lfingers  90 7.125020027 -90
lowerneck  -9.853980064 4.23830986 -3.660779953
upperneck  7.976210117 5.994569778 2.02786994
head  4.228660107 2.944289923 1.736629963
12
root  9.795200168 39.63644373 -7.908999826 -5.314760208 -46.32149887 7.575339794
lfemur  -22.11209488 4.423820019 -17.2637043
ltibia  -1.491570742e-006 -8.364404493e-007 52.38978577
lfoot  5.521815751e-007 -14.668293 -0.567112267
ltoes  -4.250644065 -19.5611806 -102.515957
rfemur  -16.84669495 15.6796999 7.985708237
rtibia  -8.727266732e-007 2.533748784e-007 51.68058395
rfoot  -2.316020982e-006 -25.42789268 -8.162908554
rtoes  5.373923086 19.29304026 -105.8922705
lowerback  11.08510017 1.038429976 -1.46073997
upperback  2.228480101 1.183680058 0.2831720114
thorax  -3.922230005 0.5873780251 0.9498220086
rclavicle  0 -9.442270133e-015 7.951389973e-016
rhumerus  -23.17309952 27.6257 -81.93319702
rradius  -7.782816926e-012 0.001642658608 102.6589966
rwrist  0.002739921212 0.003270594636 -2.287293196
rthumb  -92.93752616 -24.25625642 -97.11982154
rhand  -7.920061211e-032 -33.2840004 9.303460121
rfingers  -90 -7.125020027 -90
lclavicle  0 -9.442270133e-015 7.951389973e-016
lhumerus  -26.0984993 4.676420212 84.04599762
lradius  1.032090125e-011 -0.003757435596 125.2600021
lwrist  1.816137865e-011 1.409039812e-011 3.390539885
lthumb  89.89689403 5.08795885 91.16245106
lhand  -1.496451383e-031 -27.76390076 20.11240005
lfingers  90 7.125020027 -90
lowerneck  -9.883069992 4.509469986 -3.317399979
upperneck  7.67016983 6.338650703 1.73695004
head  4.132319927 3.11420989 1.590710044
13
root  9.892999844 39.78244451 -7.846266829 -5.447859764 -46.82709885 7.674590111
lfemur  -22.49829865 5.137369633 -17.24029922
ltibia  -1.491570742e-006 -8.364404493e-007 52.92029572
lfoot  5.521815751e-007 -12.76949787 -1.443549395
ltoes  -4.250644065 -19.5611806 -102.515957
rfemur  -17.12829781 15.26620007 7.372779369
rtibia  -8.727266732e-007 2.533748784e-007 51.49039459
rfoot  -2.316020982e-006 -24.05919838 -6.498679638
rtoes  5.373923086 19.29304026 -105.8922705
lowerback  11.38759995 1.102630019 -1.258780003
upperback  2.269870043 1.292510033 0.4271329939
thorax  -4.0480299 0.6389759779 0.9657850266
rclavicle  0 -9.442270133e-015 7.951389973e-016
rhumerus  -22.65099907 27.5625 -81.57319641
rradius  -7.782816926e-012 0.001642658608 104.0859985
rwrist  0.002739921212 0.003270594636 -2.253012896
rthumb  -92.93752616 -24.25625642 -97.11982154
rhand  -7.920061211e-032 -33.2840004 9.303460121
rfingers  -90 -7.125020027 -90
lclavicle  0 -9.442270133e-015 7.951389973e-016
lhumerus  -26.34869957 4.791369915 84.3986969
lradius  1.032090038e-011 -0.003757435596 125.7710037
lwrist  1.816137865e-011 1.409039812e-011 3.427459955
lthumb  89.89689403 5.08795885 91.16245106
lhand  -1.496451383e-031 -27.76390076 20.11240005
lfingers  90 7.125020027 -90
lowerneck  -9.856349945 4.777659893 -3.035419941
upperneck  7.525080204 6.697399616 1.318490028
head  4.087820053 3.280450106 1.417469978
